<svg width="32" height="32" viewBox="0 0 32 32" fill="none" xmlns="http://www.w3.org/2000/svg">
<g clip-path="url(#clip0_1_17)">
<rect width="32" height="32" fill="white"/>
<g clip-path="url(#clip1_1_17)">
<mask id="mask0_1_17" style="mask-type:luminance" maskUnits="userSpaceOnUse" x="1" y="0" width="30" height="32">
<path d="M30.3153 0H1.54077V32H30.3153V0Z" fill="white"/>
</mask>
<g mask="url(#mask0_1_17)">
<path d="M13.9639 31.4421L11.0277 29.7472V24.0961L15.9281 26.801L20.8284 24.0961V29.7472L17.8923 31.4421C17.2952 31.7873 16.6177 31.969 15.9281 31.9688C15.2384 31.969 14.561 31.7873 13.9639 31.4421ZM26.5046 10.644C26.5047 10.4954 26.4656 10.3494 26.3913 10.2206C26.3169 10.0919 26.21 9.98501 26.0812 9.91072C25.9525 9.83642 25.8065 9.79734 25.6579 9.79741C25.5092 9.79747 25.3632 9.83667 25.2345 9.91108L15.9352 15.1579L6.62128 9.91121C6.49261 9.83684 6.34661 9.79767 6.19799 9.79762C6.04937 9.79757 5.90336 9.83666 5.77463 9.91095C5.64591 9.98523 5.53902 10.0921 5.46469 10.2208C5.39037 10.3495 5.35126 10.4955 5.35126 10.6441V26.4704L3.53607 25.4225C2.93915 25.0775 2.44346 24.5816 2.09873 23.9846C1.754 23.3875 1.57235 22.7103 1.57202 22.0209V9.97913C1.57234 9.28965 1.754 8.61237 2.09876 8.01528C2.44353 7.41818 2.93928 6.92225 3.53624 6.57728L13.964 0.557786C14.561 0.212735 15.2384 0.0310669 15.9281 0.0310669C16.6177 0.0310669 17.2952 0.212735 17.8923 0.557786L28.32 6.57728C28.917 6.92218 29.4129 7.4181 29.7577 8.01521C30.1024 8.61233 30.284 9.28964 30.2842 9.97913V22.0209C30.2839 22.7103 30.1022 23.3875 29.7574 23.9846C29.4127 24.5816 28.9168 25.0775 28.3198 25.4222L26.5046 26.4702V10.644Z" fill="#44C9F6"/>
</g>
</g>
</g>
<defs>
<clipPath id="clip0_1_17">
<rect width="32" height="32" fill="white"/>
</clipPath>
<clipPath id="clip1_1_17">
<rect width="28.8" height="32" fill="white" transform="translate(1.54077)"/>
</clipPath>
</defs>
</svg>
